# xmcd
#
# Track frame offsets:
#	150
#	18365
#	38307
#	54429
#	70851
#	87117
#	101037
#	114713
#	131950
#	149064
#	164900
#	180577
#	195581
#	212539
#	237109
#	250961
#
# Disc length: 3549 seconds
#
# Revision: 1
# Processed by: cddbd v1.5.2PL0 Copyright (c) Steve Scherf et al.
# Submitted via: audiograbber 1.83.01
#
DISCID=e40ddb10
DTITLE=The New York Lounge Society - Christmas Chill
DYEAR=2010
DGENRE=Easy Listening
TTITLE0=Joy To The World
TTITLE1=Away In A Manger
TTITLE2=Noite Feliz
TTITLE3=O Christmas Tree
TTITLE4=Behold That Star
TTITLE5=Oh Little Town Of Bethlehem
TTITLE6=Coventry Carol
TTITLE7=A Day Of Joy
TTITLE8=Christmas Bells
TTITLE9=It Came Upon a Midnught Clear
TTITLE10=Auld Lang Syne
TTITLE11=Jingle Bells
TTITLE12=The First Noel
TTITLE13=Snow Memories
TTITLE14=We Wish You A Merry Christmas
TTITLE15=Silent Night
EXTD=
EXTT0=
EXTT1=
EXTT2=
EXTT3=
EXTT4=
EXTT5=
EXTT6=
EXTT7=
EXTT8=
EXTT9=
EXTT10=
EXTT11=
EXTT12=
EXTT13=
EXTT14=
EXTT15=
PLAYORDER=
